<?xml version="1.0" encoding="UTF-8" standalone="no"?>
<svg xmlns="http://www.w3.org/2000/svg" width="60" height="50" viewBox="0 0 60 50" fill="none">
  <!-- Sound waves background effect -->
  <path d="M20 25C20 16.7157 26.7157 10 35 10C43.2843 10 50 16.7157 50 25C50 33.2843 43.2843 40 35 40C26.7157 40 20 33.2843 20 25Z" fill="#0EA5E9" fill-opacity="0.2"/>
  <path d="M15 25C15 13.9543 23.9543 5 35 5C46.0457 5 55 13.9543 55 25C55 36.0457 46.0457 45 35 45C23.9543 45 15 36.0457 15 25Z" stroke="#0EA5E9" stroke-width="1.5" stroke-dasharray="3 3"/>
  <path d="M10 25C10 11.1929 21.1929 0 35 0C48.8071 0 60 11.1929 60 25C60 38.8071 48.8071 50 35 50C21.1929 50 10 38.8071 10 25Z" stroke="#0EA5E9" stroke-width="0.75" stroke-dasharray="2 4"/>
  
  <!-- Small sound icon -->
  <path d="M36 18V32" stroke="#0EA5E9" stroke-width="1.5" stroke-linecap="round"/>
  <path d="M31 21V29" stroke="#0EA5E9" stroke-width="1.5" stroke-linecap="round"/>
  <path d="M41 21V29" stroke="#0EA5E9" stroke-width="1.5" stroke-linecap="round"/>
  <path d="M26 24V26" stroke="#0EA5E9" stroke-width="1.5" stroke-linecap="round"/>
  <path d="M46 24V26" stroke="#0EA5E9" stroke-width="1.5" stroke-linecap="round"/>
</svg>
